<?xml version="1.0" encoding="iso-8859-1"?>
<!-- Generator: Adobe Illustrator 19.0.0, SVG Export Plug-In . SVG Version: 6.00 Build 0)  -->
<svg version="1.1" id="Capa_1" xmlns="http://www.w3.org/2000/svg" xmlns:xlink="http://www.w3.org/1999/xlink" x="0px" y="0px"
	 viewBox="0 0 512 512" style="enable-background:new 0 0 512 512;" xml:space="preserve">
<circle style="fill:#48AEF9;" cx="256" cy="266.64" r="245.36"/>
<path style="fill:#647892;" d="M357.74,0H154.26c-29.886,0-54.201,24.315-54.201,54.201c0,12.573,0,298.647,0,401.875
	C142.452,491.014,196.775,512,256,512s113.548-20.986,155.941-55.924c0-111.13,0-214.726,0-401.875
	C411.941,24.315,387.627,0,357.74,0z"/>
<g>
	<path style="fill:#4D6682;" d="M163.682,54.201C163.682,24.315,187.997,0,217.883,0H154.26c-29.886,0-54.201,24.315-54.201,54.201
		c0,12.573,0,298.647,0,401.875c19.017,15.672,40.439,28.526,63.623,37.949C163.682,344.52,163.682,64.797,163.682,54.201z"/>
	<path style="fill:#4D6682;" d="M289.52,38.775H253.19c-4.83,0-8.745-3.915-8.745-8.745s3.915-8.745,8.745-8.745h36.329
		c4.83,0,8.745,3.915,8.745,8.745S294.349,38.775,289.52,38.775z"/>
	<path style="fill:#4D6682;" d="M222.477,38.78c-4.84,0-8.745-3.981-8.745-8.745c0-5.479,5.018-9.648,10.459-8.58
		c4.223,0.877,7.031,4.497,7.031,8.58C231.222,34.948,227.188,38.78,222.477,38.78z"/>
</g>
<path style="fill:#EFEFEF;" d="M256,512c46.033,0,89.101-12.682,125.912-34.737c0-74.446,0-405.15,0-423.062
	c0-13.35-10.823-24.172-24.172-24.172h-25.36c-4.993,0-9.041,4.047-9.045,9.04v5.743c0,7.696-6.297,13.992-13.992,13.992l0,0
	H202.656c-7.696,0-13.992-6.296-13.992-13.992v-5.743c-0.003-4.993-4.051-9.04-9.045-9.04h-25.36
	c-13.349,0-24.171,10.822-24.171,24.172v423.062C166.899,499.317,209.967,512,256,512z"/>
<g>
	<path style="fill:#DDDDDD;" d="M163.682,54.201c0-8.682,2.064-16.888,5.709-24.171h-15.132c-13.349,0-24.171,10.822-24.171,24.172
		v423.059c10.83,6.462,21.875,12.002,33.593,16.764C163.682,344.52,163.682,64.797,163.682,54.201z"/>
	<path style="fill:#DDDDDD;" d="M262.366,483.645h-12.732c-4.83,0-8.745-3.915-8.745-8.745c0-4.83,3.915-8.745,8.745-8.745h12.732
		c4.83,0,8.745,3.915,8.745,8.745C271.111,479.73,267.195,483.645,262.366,483.645z"/>
</g>
<path style="fill:#64C4FF;" d="M259.041,130.082c-1.684-1.674-4.399-1.674-6.083,0c-22.875,22.743-53.911,33.153-84.54,30.213
	c-2.539-0.244-4.738,1.745-4.738,4.295v92.689c0,71.571,35.54,59.714,89.931,95.846c1.445,0.96,3.329,0.96,4.775,0
	c54.391-36.132,89.931-24.276,89.931-95.846V164.59c0-2.551-2.198-4.539-4.738-4.295
	C312.942,163.236,281.904,152.813,259.041,130.082z"/>
<path style="fill:#48AEF9;" d="M207.464,282.303V156.769c-12.627,3.591-25.898,4.788-39.044,3.525
	c-2.539-0.243-4.738,1.744-4.738,4.295v92.688c0,56.956,22.508,61.079,59.112,78.597
	C212.908,325.544,207.464,310.313,207.464,282.303z"/>
<g>
	<path style="fill:#FAC149;" d="M348.318,164.59c0-2.551-2.198-4.539-4.737-4.295c-30.83,2.958-61.806-7.611-84.54-30.213
		c-0.842-0.837-1.941-1.255-3.041-1.255v112.509h92.318V164.59H348.318z"/>
	<path style="fill:#FAC149;" d="M163.682,257.278c0,71.571,35.54,59.714,89.931,95.846c0.723,0.479,1.556,0.72,2.387,0.72V241.336
		h-92.318V257.278z"/>
</g>
<path style="fill:#F8A748;" d="M207.464,282.303v-40.967h-43.782v15.943c0,13.068,1.156,28.103,6.375,40.023
	c9.444,21.586,30.322,27.871,52.736,38.574C212.908,325.544,207.464,310.313,207.464,282.303z"/>
<path style="fill:#7CE89B;" d="M307.862,430.843H204.138c-8.935,0-16.177-7.243-16.177-16.177l0,0
	c0-8.935,7.243-16.177,16.177-16.177h103.723c8.935,0,16.177,7.243,16.177,16.177l0,0
	C324.038,423.601,316.796,430.843,307.862,430.843z"/>
<path style="fill:#2FCC63;" d="M256,414.666c0-8.935,7.243-16.178,16.177-16.178h-68.038c-8.935,0-16.177,7.243-16.177,16.178
	c0,8.934,7.243,16.177,16.177,16.177h68.038C263.243,430.844,256,423.601,256,414.666z"/>
<path style="fill:#EFEFEF;" d="M245.748,278.75L245.748,278.75c-4.263,0-8.351-1.694-11.366-4.708L212.17,251.83
	c-6.277-6.277-6.277-16.454,0-22.731c6.277-6.276,16.455-6.276,22.731,0l10.847,10.847l31.35-31.351
	c6.277-6.277,16.454-6.277,22.731,0c6.277,6.277,6.277,16.454,0,22.731l-42.716,42.717
	C254.099,277.057,250.011,278.75,245.748,278.75z"/>
<path style="fill:#DDDDDD;" d="M299.83,208.596c-1.172-1.172-2.48-2.124-3.873-2.859c1.02,4.431-0.182,9.27-3.635,12.722
	l-36.272,36.272c-2.56,2.559-6.031,3.998-9.65,3.998c-3.621,0-7.092-1.437-9.651-3.998l-18.861-18.861
	c-2.319-2.319-3.627-5.265-3.928-8.292c-0.621,0.462-1.225,0.957-1.789,1.52c-6.277,6.277-6.277,16.454,0,22.731l22.212,22.213
	c3.014,3.014,7.103,4.708,11.366,4.708c4.262,0,8.351-1.694,11.365-4.708l42.716-42.716
	C306.106,225.049,306.106,214.872,299.83,208.596z"/>
<g>
</g>
<g>
</g>
<g>
</g>
<g>
</g>
<g>
</g>
<g>
</g>
<g>
</g>
<g>
</g>
<g>
</g>
<g>
</g>
<g>
</g>
<g>
</g>
<g>
</g>
<g>
</g>
<g>
</g>
</svg>
