<?xml version="1.0" encoding="iso-8859-1"?>
<!-- Generator: Adobe Illustrator 19.0.0, SVG Export Plug-In . SVG Version: 6.00 Build 0)  -->
<svg version="1.1" id="Capa_1" xmlns="http://www.w3.org/2000/svg" xmlns:xlink="http://www.w3.org/1999/xlink" x="0px" y="0px"
	 viewBox="0 0 512.001 512.001" style="enable-background:new 0 0 512.001 512.001;" xml:space="preserve">
<path style="fill:#4C60E1;" d="M402.452,115.72l-7.355,109.096c-1.082,16.153-8.128,31.215-19.841,42.402
	c-8.489,8.108-18.894,13.681-30.143,16.266c-4.275,0.979-8.664,1.535-13.114,1.628l-81.013,3.719l-1.834,0.082
	c-5.882,1.35-8.211,7.067-8.211,13.104v171.216c0,5.038-2.04,9.612-5.347,12.918c-3.307,3.307-7.871,5.347-12.918,5.347
	c-10.086,0-18.265-8.18-18.265-18.265V249.026l45.328-26.857c4.244-2.514,8.86-3.688,13.382-3.688
	c11.002,0,21.5,6.933,25.136,18.378c3.534,11.126,13.98,18.595,25.662,18.337l17.42-0.381c17.905-0.381,32.317-14.165,33.522-32.039
	l7.355-109.096c0.556-8.344,7.788-14.67,16.133-14.103C396.703,100.144,403.008,107.365,402.452,115.72z"/>
<path style="fill:#364EC6;" d="M250.984,288.832l-1.834,0.082c-5.882,1.35-8.211,7.067-8.211,13.104v0.288l-25.373-43.659
	c-2.153-3.678-0.917-8.417,2.771-10.57c3.678-2.153,8.417-0.917,10.57,2.771L250.984,288.832z"/>
<g>
	<path style="fill:#E3F4FF;" d="M246.187,483.264v18.766c0,5.507-4.464,9.971-9.971,9.971h-65.582c-3.66,0-6.628-2.967-6.628-6.628
		v-1.422c0-15.085,12.229-27.314,27.314-27.314h48.238C243.219,476.636,246.187,479.603,246.187,483.264z"/>
	<path style="fill:#E3F4FF;" d="M372.221,106.679l13.27-13.269c3.894-3.894,10.207-3.894,14.1,0l46.373,46.373
		c2.588,2.588,2.588,6.785,0,9.373l-1.005,1.005c-10.667,10.667-27.961,10.667-38.628,0l-34.109-34.109
		C369.633,113.464,369.633,109.268,372.221,106.679z"/>
</g>
<path style="fill:#FEDFC5;" d="M376.924,108.315c-5.282,3.37-10.729,6.387-16.318,9.066c-12.923,6.225-26.507,10.679-40.089,13.8
	c-29.626,6.808-59.276,7.302-82.177,5.937c-23.71-1.39-40.17-4.763-41.87-5.122c-8.186-1.723-13.427-9.767-11.694-17.955
	c1.723-8.186,9.749-13.412,17.932-11.699c0.212,0.047,4.757,0.968,12.373,2.008c19.707,2.69,59.971,6.163,98.884-2.78
	c16.324-3.751,32.41-9.689,46.639-18.783c7.05-4.506,16.424-2.443,20.93,4.608c0.267,0.425,0.526,0.862,0.745,1.309
	C385.768,95.565,383.551,104.086,376.924,108.315z"/>
<path style="fill:#FECBAA;" d="M184.776,114.041c1.723-8.186,9.749-13.412,17.932-11.699c0.212,0.047,4.757,0.968,12.373,2.008
	l23.258,32.769c-23.71-1.39-40.17-4.763-41.87-5.122C188.284,130.273,183.043,122.229,184.776,114.041z"/>
<path style="fill:#FEDFC5;" d="M171.148,264.005c-2.306-12.058-3.428-24.209-3.771-35.82c-0.325-10.431-0.019-20.415,0.613-29.522
	c-8.82-12.787-17.446-25.705-25.854-38.767c-1.255,7.058-2.658,16.361-3.701,27.208c-0.009,0.055-0.015,0.12-0.013,0.172
	c-2.207,22.819-2.802,52.382,2.881,82.171c2.617,13.689,6.558,27.432,12.306,40.581c2.468,5.679,5.278,11.238,8.443,16.641
	c3.978,6.78,12.414,9.313,19.397,6.08c0.461-0.201,0.903-0.44,1.343-0.689c7.205-4.245,9.626-13.532,5.379-20.747
	C179.616,296.758,174.284,280.459,171.148,264.005z"/>
<path style="fill:#FECBAA;" d="M142.136,159.896c-1.255,7.058-2.658,16.361-3.701,27.208c-0.009,0.055-0.015,0.12-0.013,0.172
	l28.955,40.909c-0.325-10.431-0.019-20.415,0.613-29.522C159.17,185.876,150.543,172.958,142.136,159.896z"/>
<path style="fill:#FD6096;" d="M270.836,221.788l-53.951,38.776c-4.646,3.338-11.116,2.256-14.423-2.41l-7.51-10.601l-31.843-44.998
	l-9.035-12.764l-12.228-17.286c-3.297-4.574-5.202-9.725-5.81-14.948c-1.308-11.167,3.317-22.685,13.104-29.71l21.057-15.144
	l15.844-11.394c4.728-3.4,11.301-2.308,14.701,2.41l35.521,50.057l37.169,52.395C277.006,211.197,275.842,218.182,270.836,221.788z"
	/>
<g>
	<path style="fill:#FC3E81;" d="M170.199,112.699c-2.363,19.98-15.61,37.304-34.158,44.854
		c-1.309-11.167,3.317-22.683,13.096-29.708L170.199,112.699z"/>
	<path style="fill:#FC3E81;" d="M270.835,221.782l-53.954,38.788c-4.643,3.338-11.117,2.255-14.422-2.412l-7.509-10.607
		c31.402-35.04,39.331-74.255,41.307-93.769l37.179,52.391C277.009,211.206,275.847,218.179,270.835,221.782z"/>
</g>
<path style="fill:#FEDFC5;" d="M159.242,105.695c0.33,24.297-19.098,44.249-43.396,44.58c-24.286,0.33-44.249-19.087-44.579-43.384
	c-0.005-0.381-0.01-0.763,0.007-1.134c-0.004-0.258,0.004-0.516,0.012-0.764c0.669-23.435,19.708-42.361,43.365-42.682
	c23.669-0.322,43.214,18.08,44.52,41.488c0.015,0.247,0.029,0.505,0.033,0.763C159.232,104.932,159.237,105.314,159.242,105.695z"/>
<path style="fill:#FECBAA;" d="M159.204,104.562c-0.695,0.088-1.401,0.131-2.108,0.141l-83.71,1.137
	c-0.707,0.01-1.415-0.014-2.112-0.084c-0.004-0.258,0.004-0.516,0.012-0.764c0.669-23.435,19.708-42.361,43.365-42.682
	c23.669-0.322,43.214,18.08,44.52,41.488C159.186,104.046,159.201,104.304,159.204,104.562z"/>
<path style="fill:#C97F4C;" d="M160.121,25.785c0.078,5.757-1.713,11.102-4.819,15.466c-4.648,6.574-12.278,10.909-20.964,11.027
	c-13.523,0.184-24.785-9.945-26.31-23.091c-0.102-0.885-0.159-1.783-0.171-2.692c-0.196-14.432,11.339-26.297,25.771-26.493
	C148.072-0.194,159.925,11.353,160.121,25.785z"/>
<g>
	<path style="fill:#AA6344;" d="M127.94,46.535c-1.115,0-2.248-0.243-3.322-0.755c-3.851-1.838-5.483-6.45-3.646-10.301
		l6.042-12.663c1.838-3.851,6.448-5.483,10.301-3.646c3.851,1.838,5.483,6.45,3.646,10.301l-6.042,12.663
		C133.594,44.911,130.825,46.535,127.94,46.535z"/>
	<path style="fill:#AA6344;" d="M108.028,29.187l13.086-0.178c12.626-0.172,24.495,4.326,34.189,12.242
		c-4.648,6.574-12.278,10.909-20.964,11.027C120.815,52.462,109.554,42.333,108.028,29.187z"/>
</g>
<path style="fill:#C97F4C;" d="M156.923,92.356c5.736-0.078,9.907-5.425,8.653-11.023c-5.207-23.24-23.168-40.267-44.295-39.98
	l-13.819,0.188c-21.128,0.287-38.62,17.796-43.193,41.169c-1.102,5.63,3.213,10.861,8.949,10.784L156.923,92.356z"/>
<path style="fill:#FC3E81;" d="M182.498,190.491c-5.604,5.264-12.115,9.313-19.388,12.064l-9.035-12.764
	c0.639-0.494,1.37-0.896,2.184-1.174c5.924-2.04,11.198-5.202,15.659-9.395c3.121-2.915,8.005-2.761,10.93,0.35
	C185.763,182.682,185.609,187.575,182.498,190.491z"/>
<g>
	<path style="fill:#AA6344;" d="M100.507,118.771c-0.015,0-0.029,0-0.043,0c-4.267-0.024-7.754-3.502-7.73-7.769
		c0.023-4.253,3.433-7.685,7.679-7.685c0.015,0,0.029,0,0.043,0l0.092,0.001c4.267,0.024,7.707,3.502,7.684,7.769
		C108.209,115.339,104.754,118.771,100.507,118.771z"/>
	<path style="fill:#AA6344;" d="M90.266,99.238c-4.267,0-7.726-3.459-7.726-7.726V75.641c0-4.267,3.459-7.726,7.726-7.726
		s7.726,3.459,7.726,7.726v15.871C97.992,95.779,94.533,99.238,90.266,99.238z"/>
</g>
<g>
</g>
<g>
</g>
<g>
</g>
<g>
</g>
<g>
</g>
<g>
</g>
<g>
</g>
<g>
</g>
<g>
</g>
<g>
</g>
<g>
</g>
<g>
</g>
<g>
</g>
<g>
</g>
<g>
</g>
</svg>
